<mxfile host="Electron" agent="Mozilla/5.0 (Windows NT 10.0; Win64; x64) AppleWebKit/537.36 (KHTML, like Gecko) draw.io/27.0.5 Chrome/134.0.6998.205 Electron/35.3.0 Safari/537.36" version="27.0.5">
  <diagram name="Page-1" id="UQfQ47-jhMwPksH4_KgC">
    <mxGraphModel dx="914" dy="732" grid="1" gridSize="10" guides="1" tooltips="1" connect="1" arrows="1" fold="1" page="1" pageScale="1" pageWidth="850" pageHeight="1100" math="0" shadow="0">
      <root>
        <mxCell id="0" />
        <mxCell id="1" parent="0" />
        <mxCell id="b0yN6-IstvrLOiEEKhjC-58" style="edgeStyle=orthogonalEdgeStyle;rounded=0;orthogonalLoop=1;jettySize=auto;html=1;endArrow=none;startFill=0;dashed=1;startArrow=open;" parent="1" source="b0yN6-IstvrLOiEEKhjC-1" target="b0yN6-IstvrLOiEEKhjC-11" edge="1">
          <mxGeometry relative="1" as="geometry" />
        </mxCell>
        <mxCell id="b0yN6-IstvrLOiEEKhjC-1" value="BEUsuario_391IAU" style="swimlane;fontStyle=1;align=center;verticalAlign=top;childLayout=stackLayout;horizontal=1;startSize=29.473684210526315;horizontalStack=0;resizeParent=1;resizeParentMax=0;resizeLast=0;collapsible=0;marginBottom=0;" parent="1" vertex="1">
          <mxGeometry x="10" y="39.67" width="145" height="276.4736842105263" as="geometry" />
        </mxCell>
        <mxCell id="b0yN6-IstvrLOiEEKhjC-2" value="- Apellido: string" style="text;strokeColor=none;fillColor=none;align=left;verticalAlign=top;spacingLeft=4;spacingRight=4;overflow=hidden;rotatable=0;points=[[0,0.5],[1,0.5]];portConstraint=eastwest;" parent="b0yN6-IstvrLOiEEKhjC-1" vertex="1">
          <mxGeometry y="29.473684210526315" width="145" height="29" as="geometry" />
        </mxCell>
        <mxCell id="b0yN6-IstvrLOiEEKhjC-3" value="- ContraseÃ±a: string" style="text;strokeColor=none;fillColor=none;align=left;verticalAlign=top;spacingLeft=4;spacingRight=4;overflow=hidden;rotatable=0;points=[[0,0.5],[1,0.5]];portConstraint=eastwest;" parent="b0yN6-IstvrLOiEEKhjC-1" vertex="1">
          <mxGeometry y="58.473684210526315" width="145" height="29" as="geometry" />
        </mxCell>
        <mxCell id="b0yN6-IstvrLOiEEKhjC-4" value="- DNI: int" style="text;strokeColor=none;fillColor=none;align=left;verticalAlign=top;spacingLeft=4;spacingRight=4;overflow=hidden;rotatable=0;points=[[0,0.5],[1,0.5]];portConstraint=eastwest;" parent="b0yN6-IstvrLOiEEKhjC-1" vertex="1">
          <mxGeometry y="87.47368421052632" width="145" height="29" as="geometry" />
        </mxCell>
        <mxCell id="b0yN6-IstvrLOiEEKhjC-5" value="- e-Mail: string" style="text;strokeColor=none;fillColor=none;align=left;verticalAlign=top;spacingLeft=4;spacingRight=4;overflow=hidden;rotatable=0;points=[[0,0.5],[1,0.5]];portConstraint=eastwest;" parent="b0yN6-IstvrLOiEEKhjC-1" vertex="1">
          <mxGeometry y="116.47368421052632" width="145" height="29" as="geometry" />
        </mxCell>
        <mxCell id="b0yN6-IstvrLOiEEKhjC-6" value="- Estado: bool" style="text;strokeColor=none;fillColor=none;align=left;verticalAlign=top;spacingLeft=4;spacingRight=4;overflow=hidden;rotatable=0;points=[[0,0.5],[1,0.5]];portConstraint=eastwest;" parent="b0yN6-IstvrLOiEEKhjC-1" vertex="1">
          <mxGeometry y="145.4736842105263" width="145" height="29" as="geometry" />
        </mxCell>
        <mxCell id="b0yN6-IstvrLOiEEKhjC-7" value="- Nombre: string" style="text;strokeColor=none;fillColor=none;align=left;verticalAlign=top;spacingLeft=4;spacingRight=4;overflow=hidden;rotatable=0;points=[[0,0.5],[1,0.5]];portConstraint=eastwest;" parent="b0yN6-IstvrLOiEEKhjC-1" vertex="1">
          <mxGeometry y="174.4736842105263" width="145" height="29" as="geometry" />
        </mxCell>
        <mxCell id="b0yN6-IstvrLOiEEKhjC-8" value="- Permisos: list" style="text;strokeColor=none;fillColor=none;align=left;verticalAlign=top;spacingLeft=4;spacingRight=4;overflow=hidden;rotatable=0;points=[[0,0.5],[1,0.5]];portConstraint=eastwest;" parent="b0yN6-IstvrLOiEEKhjC-1" vertex="1">
          <mxGeometry y="203.4736842105263" width="145" height="29" as="geometry" />
        </mxCell>
        <mxCell id="b0yN6-IstvrLOiEEKhjC-9" value="- Rol: Rol_391IAU" style="text;strokeColor=none;fillColor=none;align=left;verticalAlign=top;spacingLeft=4;spacingRight=4;overflow=hidden;rotatable=0;points=[[0,0.5],[1,0.5]];portConstraint=eastwest;" parent="b0yN6-IstvrLOiEEKhjC-1" vertex="1">
          <mxGeometry y="232.4736842105263" width="145" height="29" as="geometry" />
        </mxCell>
        <mxCell id="b0yN6-IstvrLOiEEKhjC-10" style="line;strokeWidth=1;fillColor=none;align=left;verticalAlign=middle;spacingTop=-1;spacingLeft=3;spacingRight=3;rotatable=0;labelPosition=right;points=[];portConstraint=eastwest;strokeColor=inherit;" parent="b0yN6-IstvrLOiEEKhjC-1" vertex="1">
          <mxGeometry y="261.4736842105263" width="145" height="15" as="geometry" />
        </mxCell>
        <mxCell id="_GUHdLQRuBp_Pl9lcR-w-2" style="edgeStyle=orthogonalEdgeStyle;rounded=0;orthogonalLoop=1;jettySize=auto;html=1;entryX=0.5;entryY=0;entryDx=0;entryDy=0;endArrow=open;endFill=0;dashed=1;" edge="1" parent="1" source="b0yN6-IstvrLOiEEKhjC-11" target="b0yN6-IstvrLOiEEKhjC-20">
          <mxGeometry relative="1" as="geometry" />
        </mxCell>
        <mxCell id="b0yN6-IstvrLOiEEKhjC-11" value="BLLUsuario_391IAU" style="swimlane;fontStyle=1;align=center;verticalAlign=top;childLayout=stackLayout;horizontal=1;startSize=30.823529411764707;horizontalStack=0;resizeParent=1;resizeParentMax=0;resizeLast=0;collapsible=0;marginBottom=0;" parent="1" vertex="1">
          <mxGeometry x="200" y="50" width="317.5" height="255.8235294117647" as="geometry" />
        </mxCell>
        <mxCell id="b0yN6-IstvrLOiEEKhjC-12" style="line;strokeWidth=1;fillColor=none;align=left;verticalAlign=middle;spacingTop=-1;spacingLeft=3;spacingRight=3;rotatable=0;labelPosition=right;points=[];portConstraint=eastwest;strokeColor=inherit;" parent="b0yN6-IstvrLOiEEKhjC-11" vertex="1">
          <mxGeometry y="30.823529411764707" width="317.5" height="8" as="geometry" />
        </mxCell>
        <mxCell id="b0yN6-IstvrLOiEEKhjC-13" value="+ ActualizarRol(Usuario_391IAU, Rol_391IAU) : : void" style="text;strokeColor=none;fillColor=none;align=left;verticalAlign=top;spacingLeft=4;spacingRight=4;overflow=hidden;rotatable=0;points=[[0,0.5],[1,0.5]];portConstraint=eastwest;" parent="b0yN6-IstvrLOiEEKhjC-11" vertex="1">
          <mxGeometry y="38.82352941176471" width="317.5" height="31" as="geometry" />
        </mxCell>
        <mxCell id="b0yN6-IstvrLOiEEKhjC-14" value="+ GetDatos(int, string, string, string, Rol_391IAU) : : void" style="text;strokeColor=none;fillColor=none;align=left;verticalAlign=top;spacingLeft=4;spacingRight=4;overflow=hidden;rotatable=0;points=[[0,0.5],[1,0.5]];portConstraint=eastwest;" parent="b0yN6-IstvrLOiEEKhjC-11" vertex="1">
          <mxGeometry y="69.82352941176471" width="317.5" height="31" as="geometry" />
        </mxCell>
        <mxCell id="b0yN6-IstvrLOiEEKhjC-15" value="+ ModificarUsuario(Usuario_391IAU) : : bool" style="text;strokeColor=none;fillColor=none;align=left;verticalAlign=top;spacingLeft=4;spacingRight=4;overflow=hidden;rotatable=0;points=[[0,0.5],[1,0.5]];portConstraint=eastwest;" parent="b0yN6-IstvrLOiEEKhjC-11" vertex="1">
          <mxGeometry y="100.82352941176471" width="317.5" height="31" as="geometry" />
        </mxCell>
        <mxCell id="b0yN6-IstvrLOiEEKhjC-16" value="+ ObtenerUsuario(int) : : void" style="text;strokeColor=none;fillColor=none;align=left;verticalAlign=top;spacingLeft=4;spacingRight=4;overflow=hidden;rotatable=0;points=[[0,0.5],[1,0.5]];portConstraint=eastwest;" parent="b0yN6-IstvrLOiEEKhjC-11" vertex="1">
          <mxGeometry y="131.8235294117647" width="317.5" height="31" as="geometry" />
        </mxCell>
        <mxCell id="b0yN6-IstvrLOiEEKhjC-17" value="+ SetDatos(string, string, string) : : void" style="text;strokeColor=none;fillColor=none;align=left;verticalAlign=top;spacingLeft=4;spacingRight=4;overflow=hidden;rotatable=0;points=[[0,0.5],[1,0.5]];portConstraint=eastwest;" parent="b0yN6-IstvrLOiEEKhjC-11" vertex="1">
          <mxGeometry y="162.8235294117647" width="317.5" height="31" as="geometry" />
        </mxCell>
        <mxCell id="b0yN6-IstvrLOiEEKhjC-18" value="+ SetRol(Rol_391IAU) : : void" style="text;strokeColor=none;fillColor=none;align=left;verticalAlign=top;spacingLeft=4;spacingRight=4;overflow=hidden;rotatable=0;points=[[0,0.5],[1,0.5]];portConstraint=eastwest;" parent="b0yN6-IstvrLOiEEKhjC-11" vertex="1">
          <mxGeometry y="193.8235294117647" width="317.5" height="31" as="geometry" />
        </mxCell>
        <mxCell id="b0yN6-IstvrLOiEEKhjC-19" value="+ ValidarDatos(string, string, string) : : bool" style="text;strokeColor=none;fillColor=none;align=left;verticalAlign=top;spacingLeft=4;spacingRight=4;overflow=hidden;rotatable=0;points=[[0,0.5],[1,0.5]];portConstraint=eastwest;" parent="b0yN6-IstvrLOiEEKhjC-11" vertex="1">
          <mxGeometry y="224.8235294117647" width="317.5" height="31" as="geometry" />
        </mxCell>
        <mxCell id="b0yN6-IstvrLOiEEKhjC-61" style="edgeStyle=orthogonalEdgeStyle;rounded=0;orthogonalLoop=1;jettySize=auto;html=1;endArrow=block;endFill=0;" parent="1" source="b0yN6-IstvrLOiEEKhjC-25" target="b0yN6-IstvrLOiEEKhjC-28" edge="1">
          <mxGeometry relative="1" as="geometry" />
        </mxCell>
        <mxCell id="b0yN6-IstvrLOiEEKhjC-64" style="edgeStyle=orthogonalEdgeStyle;rounded=0;orthogonalLoop=1;jettySize=auto;html=1;endArrow=diamondThin;endFill=1;" parent="1" source="b0yN6-IstvrLOiEEKhjC-25" target="b0yN6-IstvrLOiEEKhjC-1" edge="1">
          <mxGeometry relative="1" as="geometry">
            <Array as="points">
              <mxPoint x="320" y="530" />
              <mxPoint x="40" y="530" />
            </Array>
          </mxGeometry>
        </mxCell>
        <mxCell id="b0yN6-IstvrLOiEEKhjC-65" style="edgeStyle=orthogonalEdgeStyle;rounded=0;orthogonalLoop=1;jettySize=auto;html=1;endArrow=diamondThin;endFill=1;" parent="1" source="b0yN6-IstvrLOiEEKhjC-25" target="b0yN6-IstvrLOiEEKhjC-39" edge="1">
          <mxGeometry relative="1" as="geometry">
            <Array as="points">
              <mxPoint x="400" y="530" />
              <mxPoint x="530" y="530" />
              <mxPoint x="530" y="480" />
            </Array>
          </mxGeometry>
        </mxCell>
        <mxCell id="b0yN6-IstvrLOiEEKhjC-66" style="edgeStyle=orthogonalEdgeStyle;rounded=0;orthogonalLoop=1;jettySize=auto;html=1;endArrow=diamondThin;endFill=1;" parent="1" source="b0yN6-IstvrLOiEEKhjC-25" target="b0yN6-IstvrLOiEEKhjC-32" edge="1">
          <mxGeometry relative="1" as="geometry">
            <Array as="points">
              <mxPoint x="504" y="600" />
              <mxPoint x="504" y="600" />
            </Array>
          </mxGeometry>
        </mxCell>
        <mxCell id="b0yN6-IstvrLOiEEKhjC-67" style="edgeStyle=orthogonalEdgeStyle;rounded=0;orthogonalLoop=1;jettySize=auto;html=1;endArrow=block;endFill=0;" parent="1" source="b0yN6-IstvrLOiEEKhjC-25" target="b0yN6-IstvrLOiEEKhjC-32" edge="1">
          <mxGeometry relative="1" as="geometry">
            <Array as="points">
              <mxPoint x="510" y="680" />
              <mxPoint x="510" y="680" />
            </Array>
          </mxGeometry>
        </mxCell>
        <mxCell id="b0yN6-IstvrLOiEEKhjC-25" value="PermisoComponent_391IAU" style="swimlane;fontStyle=1;align=center;verticalAlign=top;childLayout=stackLayout;horizontal=1;startSize=47.2;horizontalStack=0;resizeParent=1;resizeParentMax=0;resizeLast=0;collapsible=0;marginBottom=0;" parent="1" vertex="1">
          <mxGeometry x="268.75" y="590" width="180" height="102.2" as="geometry" />
        </mxCell>
        <mxCell id="b0yN6-IstvrLOiEEKhjC-26" style="line;strokeWidth=1;fillColor=none;align=left;verticalAlign=middle;spacingTop=-1;spacingLeft=3;spacingRight=3;rotatable=0;labelPosition=right;points=[];portConstraint=eastwest;strokeColor=inherit;" parent="b0yN6-IstvrLOiEEKhjC-25" vertex="1">
          <mxGeometry y="47.2" width="180" height="8" as="geometry" />
        </mxCell>
        <mxCell id="b0yN6-IstvrLOiEEKhjC-27" value="+ Mostrar(string) : : void" style="text;strokeColor=none;fillColor=none;align=left;verticalAlign=top;spacingLeft=4;spacingRight=4;overflow=hidden;rotatable=0;points=[[0,0.5],[1,0.5]];portConstraint=eastwest;" parent="b0yN6-IstvrLOiEEKhjC-25" vertex="1">
          <mxGeometry y="55.2" width="180" height="47" as="geometry" />
        </mxCell>
        <mxCell id="b0yN6-IstvrLOiEEKhjC-28" value="PermisoSimple_391IAU" style="swimlane;fontStyle=1;align=center;verticalAlign=top;childLayout=stackLayout;horizontal=1;startSize=45.333333333333336;horizontalStack=0;resizeParent=1;resizeParentMax=0;resizeLast=0;collapsible=0;marginBottom=0;" parent="1" vertex="1">
          <mxGeometry x="20" y="569.44" width="150" height="143.33333333333334" as="geometry" />
        </mxCell>
        <mxCell id="b0yN6-IstvrLOiEEKhjC-29" value="- Nombre: string" style="text;strokeColor=none;fillColor=none;align=left;verticalAlign=top;spacingLeft=4;spacingRight=4;overflow=hidden;rotatable=0;points=[[0,0.5],[1,0.5]];portConstraint=eastwest;" parent="b0yN6-IstvrLOiEEKhjC-28" vertex="1">
          <mxGeometry y="45.333333333333336" width="150" height="45" as="geometry" />
        </mxCell>
        <mxCell id="b0yN6-IstvrLOiEEKhjC-30" style="line;strokeWidth=1;fillColor=none;align=left;verticalAlign=middle;spacingTop=-1;spacingLeft=3;spacingRight=3;rotatable=0;labelPosition=right;points=[];portConstraint=eastwest;strokeColor=inherit;" parent="b0yN6-IstvrLOiEEKhjC-28" vertex="1">
          <mxGeometry y="90.33333333333334" width="150" height="8" as="geometry" />
        </mxCell>
        <mxCell id="b0yN6-IstvrLOiEEKhjC-31" value="+ Mostrar(string) : : void" style="text;strokeColor=none;fillColor=none;align=left;verticalAlign=top;spacingLeft=4;spacingRight=4;overflow=hidden;rotatable=0;points=[[0,0.5],[1,0.5]];portConstraint=eastwest;" parent="b0yN6-IstvrLOiEEKhjC-28" vertex="1">
          <mxGeometry y="98.33333333333334" width="150" height="45" as="geometry" />
        </mxCell>
        <mxCell id="b0yN6-IstvrLOiEEKhjC-32" value="PermisoCompuesto_391IAU" style="swimlane;fontStyle=1;align=center;verticalAlign=top;childLayout=stackLayout;horizontal=1;startSize=34.666666666666664;horizontalStack=0;resizeParent=1;resizeParentMax=0;resizeLast=0;collapsible=0;marginBottom=0;" parent="1" vertex="1">
          <mxGeometry x="560" y="532.27" width="270" height="217.66666666666666" as="geometry" />
        </mxCell>
        <mxCell id="b0yN6-IstvrLOiEEKhjC-33" value="- Hijos: list" style="text;strokeColor=none;fillColor=none;align=left;verticalAlign=top;spacingLeft=4;spacingRight=4;overflow=hidden;rotatable=0;points=[[0,0.5],[1,0.5]];portConstraint=eastwest;" parent="b0yN6-IstvrLOiEEKhjC-32" vertex="1">
          <mxGeometry y="34.666666666666664" width="270" height="35" as="geometry" />
        </mxCell>
        <mxCell id="b0yN6-IstvrLOiEEKhjC-34" value="- Nombre: string" style="text;strokeColor=none;fillColor=none;align=left;verticalAlign=top;spacingLeft=4;spacingRight=4;overflow=hidden;rotatable=0;points=[[0,0.5],[1,0.5]];portConstraint=eastwest;" parent="b0yN6-IstvrLOiEEKhjC-32" vertex="1">
          <mxGeometry y="69.66666666666666" width="270" height="35" as="geometry" />
        </mxCell>
        <mxCell id="b0yN6-IstvrLOiEEKhjC-35" style="line;strokeWidth=1;fillColor=none;align=left;verticalAlign=middle;spacingTop=-1;spacingLeft=3;spacingRight=3;rotatable=0;labelPosition=right;points=[];portConstraint=eastwest;strokeColor=inherit;" parent="b0yN6-IstvrLOiEEKhjC-32" vertex="1">
          <mxGeometry y="104.66666666666666" width="270" height="8" as="geometry" />
        </mxCell>
        <mxCell id="b0yN6-IstvrLOiEEKhjC-36" value="+ Agregar(PermisoComponent_391IAU) : : void" style="text;strokeColor=none;fillColor=none;align=left;verticalAlign=top;spacingLeft=4;spacingRight=4;overflow=hidden;rotatable=0;points=[[0,0.5],[1,0.5]];portConstraint=eastwest;" parent="b0yN6-IstvrLOiEEKhjC-32" vertex="1">
          <mxGeometry y="112.66666666666666" width="270" height="35" as="geometry" />
        </mxCell>
        <mxCell id="b0yN6-IstvrLOiEEKhjC-37" value="+ Eliminar(PermisoComponent_391IAU) : : void" style="text;strokeColor=none;fillColor=none;align=left;verticalAlign=top;spacingLeft=4;spacingRight=4;overflow=hidden;rotatable=0;points=[[0,0.5],[1,0.5]];portConstraint=eastwest;" parent="b0yN6-IstvrLOiEEKhjC-32" vertex="1">
          <mxGeometry y="147.66666666666666" width="270" height="35" as="geometry" />
        </mxCell>
        <mxCell id="b0yN6-IstvrLOiEEKhjC-38" value="+ Mostrar(string) : : void" style="text;strokeColor=none;fillColor=none;align=left;verticalAlign=top;spacingLeft=4;spacingRight=4;overflow=hidden;rotatable=0;points=[[0,0.5],[1,0.5]];portConstraint=eastwest;" parent="b0yN6-IstvrLOiEEKhjC-32" vertex="1">
          <mxGeometry y="182.66666666666666" width="270" height="35" as="geometry" />
        </mxCell>
        <mxCell id="b0yN6-IstvrLOiEEKhjC-62" style="edgeStyle=orthogonalEdgeStyle;rounded=0;orthogonalLoop=1;jettySize=auto;html=1;endArrow=diamondThin;endFill=1;" parent="1" source="b0yN6-IstvrLOiEEKhjC-39" target="b0yN6-IstvrLOiEEKhjC-20" edge="1">
          <mxGeometry relative="1" as="geometry">
            <Array as="points">
              <mxPoint x="560" y="400" />
              <mxPoint x="560" y="400" />
            </Array>
          </mxGeometry>
        </mxCell>
        <mxCell id="b0yN6-IstvrLOiEEKhjC-39" value="BERol_391IAU" style="swimlane;fontStyle=1;align=center;verticalAlign=top;childLayout=stackLayout;horizontal=1;startSize=38.857142857142854;horizontalStack=0;resizeParent=1;resizeParentMax=0;resizeLast=0;collapsible=0;marginBottom=0;" parent="1" vertex="1">
          <mxGeometry x="630" y="360.02000000000004" width="130" height="135.85714285714286" as="geometry" />
        </mxCell>
        <mxCell id="b0yN6-IstvrLOiEEKhjC-40" value="- Nombre: string" style="text;strokeColor=none;fillColor=none;align=left;verticalAlign=top;spacingLeft=4;spacingRight=4;overflow=hidden;rotatable=0;points=[[0,0.5],[1,0.5]];portConstraint=eastwest;" parent="b0yN6-IstvrLOiEEKhjC-39" vertex="1">
          <mxGeometry y="38.857142857142854" width="130" height="39" as="geometry" />
        </mxCell>
        <mxCell id="b0yN6-IstvrLOiEEKhjC-41" value="- Permisos: list" style="text;strokeColor=none;fillColor=none;align=left;verticalAlign=top;spacingLeft=4;spacingRight=4;overflow=hidden;rotatable=0;points=[[0,0.5],[1,0.5]];portConstraint=eastwest;" parent="b0yN6-IstvrLOiEEKhjC-39" vertex="1">
          <mxGeometry y="77.85714285714286" width="130" height="39" as="geometry" />
        </mxCell>
        <mxCell id="b0yN6-IstvrLOiEEKhjC-42" style="line;strokeWidth=1;fillColor=none;align=left;verticalAlign=middle;spacingTop=-1;spacingLeft=3;spacingRight=3;rotatable=0;labelPosition=right;points=[];portConstraint=eastwest;strokeColor=inherit;" parent="b0yN6-IstvrLOiEEKhjC-39" vertex="1">
          <mxGeometry y="116.85714285714286" width="130" height="19" as="geometry" />
        </mxCell>
        <mxCell id="b0yN6-IstvrLOiEEKhjC-59" style="edgeStyle=orthogonalEdgeStyle;rounded=0;orthogonalLoop=1;jettySize=auto;html=1;endArrow=none;startFill=0;startArrow=open;dashed=1;" parent="1" source="b0yN6-IstvrLOiEEKhjC-43" target="b0yN6-IstvrLOiEEKhjC-11" edge="1">
          <mxGeometry relative="1" as="geometry" />
        </mxCell>
        <mxCell id="b0yN6-IstvrLOiEEKhjC-60" style="edgeStyle=orthogonalEdgeStyle;rounded=0;orthogonalLoop=1;jettySize=auto;html=1;dashed=1;endArrow=open;endFill=0;" parent="1" source="b0yN6-IstvrLOiEEKhjC-43" target="b0yN6-IstvrLOiEEKhjC-39" edge="1">
          <mxGeometry relative="1" as="geometry" />
        </mxCell>
        <mxCell id="b0yN6-IstvrLOiEEKhjC-43" value="BLLRol_391IAU" style="swimlane;fontStyle=1;align=center;verticalAlign=top;childLayout=stackLayout;horizontal=1;startSize=47.2;horizontalStack=0;resizeParent=1;resizeParentMax=0;resizeLast=0;collapsible=0;marginBottom=0;" parent="1" vertex="1">
          <mxGeometry x="550" y="126.81" width="290" height="102.2" as="geometry" />
        </mxCell>
        <mxCell id="b0yN6-IstvrLOiEEKhjC-44" style="line;strokeWidth=1;fillColor=none;align=left;verticalAlign=middle;spacingTop=-1;spacingLeft=3;spacingRight=3;rotatable=0;labelPosition=right;points=[];portConstraint=eastwest;strokeColor=inherit;" parent="b0yN6-IstvrLOiEEKhjC-43" vertex="1">
          <mxGeometry y="47.2" width="290" height="8" as="geometry" />
        </mxCell>
        <mxCell id="b0yN6-IstvrLOiEEKhjC-45" value="+ GetPermisos(PermisoComponent_391IAU) : : void" style="text;strokeColor=none;fillColor=none;align=left;verticalAlign=top;spacingLeft=4;spacingRight=4;overflow=hidden;rotatable=0;points=[[0,0.5],[1,0.5]];portConstraint=eastwest;" parent="b0yN6-IstvrLOiEEKhjC-43" vertex="1">
          <mxGeometry y="55.2" width="290" height="47" as="geometry" />
        </mxCell>
        <mxCell id="b0yN6-IstvrLOiEEKhjC-63" style="edgeStyle=orthogonalEdgeStyle;rounded=0;orthogonalLoop=1;jettySize=auto;html=1;endArrow=diamondThin;endFill=1;" parent="1" source="b0yN6-IstvrLOiEEKhjC-20" target="b0yN6-IstvrLOiEEKhjC-1" edge="1">
          <mxGeometry relative="1" as="geometry">
            <Array as="points">
              <mxPoint x="120" y="428" />
            </Array>
          </mxGeometry>
        </mxCell>
        <mxCell id="b0yN6-IstvrLOiEEKhjC-20" value="DAL_391IAU" style="swimlane;fontStyle=1;align=center;verticalAlign=top;childLayout=stackLayout;horizontal=1;startSize=36.888888888888886;horizontalStack=0;resizeParent=1;resizeParentMax=0;resizeLast=0;collapsible=0;marginBottom=0;" parent="1" vertex="1">
          <mxGeometry x="232.38" y="350" width="252.75" height="155.88888888888889" as="geometry" />
        </mxCell>
        <mxCell id="b0yN6-IstvrLOiEEKhjC-21" style="line;strokeWidth=1;fillColor=none;align=left;verticalAlign=middle;spacingTop=-1;spacingLeft=3;spacingRight=3;rotatable=0;labelPosition=right;points=[];portConstraint=eastwest;strokeColor=inherit;" parent="b0yN6-IstvrLOiEEKhjC-20" vertex="1">
          <mxGeometry y="36.888888888888886" width="252.75" height="8" as="geometry" />
        </mxCell>
        <mxCell id="b0yN6-IstvrLOiEEKhjC-22" value="+ ActualizarUsuario(Usuario_391IAU) : : bool" style="text;strokeColor=none;fillColor=none;align=left;verticalAlign=top;spacingLeft=4;spacingRight=4;overflow=hidden;rotatable=0;points=[[0,0.5],[1,0.5]];portConstraint=eastwest;" parent="b0yN6-IstvrLOiEEKhjC-20" vertex="1">
          <mxGeometry y="44.888888888888886" width="252.75" height="37" as="geometry" />
        </mxCell>
        <mxCell id="b0yN6-IstvrLOiEEKhjC-23" value="+ ObtenerRol(string) : : Usuario_391IAU" style="text;strokeColor=none;fillColor=none;align=left;verticalAlign=top;spacingLeft=4;spacingRight=4;overflow=hidden;rotatable=0;points=[[0,0.5],[1,0.5]];portConstraint=eastwest;" parent="b0yN6-IstvrLOiEEKhjC-20" vertex="1">
          <mxGeometry y="81.88888888888889" width="252.75" height="37" as="geometry" />
        </mxCell>
        <mxCell id="b0yN6-IstvrLOiEEKhjC-24" value="+ ObtenerUsuario(int) : : Usuario_391IAU" style="text;strokeColor=none;fillColor=none;align=left;verticalAlign=top;spacingLeft=4;spacingRight=4;overflow=hidden;rotatable=0;points=[[0,0.5],[1,0.5]];portConstraint=eastwest;" parent="b0yN6-IstvrLOiEEKhjC-20" vertex="1">
          <mxGeometry y="118.88888888888889" width="252.75" height="37" as="geometry" />
        </mxCell>
      </root>
    </mxGraphModel>
  </diagram>
</mxfile>
